<svg xmlns="http://www.w3.org/2000/svg" viewBox="0 0 1024 1024">
  <defs>
    <linearGradient id="bg" x1="0" y1="0" x2="1" y2="1">
      <stop offset="0" stop-color="#fcd34d"/>
      <stop offset="1" stop-color="#f97316"/>
    </linearGradient>
  </defs>
  <rect x="32" y="32" width="960" height="960" rx="216" fill="url(#bg)"/>
  <path d="M296 264 h432 a56 56 0 0 1 56 56 v232 a56 56 0 0 1 -56 56 h-80 v96 a56 56 0 0 1 -56 56 h-160 a56 56 0 0 1 -56 -56 v-96 h-80 a56 56 0 0 1 -56 -56 v-232 a56 56 0 0 1 56 -56 Z" fill="#18181b"/>
  <g fill="url(#bg)">
    <rect x="368" y="352" width="56" height="128" rx="20"/>
    <rect x="484" y="352" width="56" height="128" rx="20"/>
    <rect x="600" y="352" width="56" height="128" rx="20"/>
  </g>
</svg>
